<?xml version="1.0" encoding="UTF-8"?><svg id="Layer_1" xmlns="http://www.w3.org/2000/svg" viewBox="0 0 900 900"><defs><style>.cls-1{fill:#fff;stroke-width:0px;}</style></defs><path class="cls-1" d="M879.06,315.93h-86.54c16.28,41.55,25.32,86.74,25.32,134.07,0,203.15-164.68,367.83-367.83,367.83-68.09,0-131.83-18.54-186.51-50.81,102.36-39.42,184.14-127.14,210.67-241.81l30.57-132.17c13.94-60.27,47.88-110.77,93.18-146.19,17.42-13.62,36.63-24.41,56.95-32.56,27.58-11.06,64.21-19.12,103.55-19.12l61.5-.11C738.8,77.86,603.32.6,450,.6,201.8.6.6,201.8.6,450c0,46.68,7.12,91.69,20.33,134.02h86.54c-16.27-41.54-25.29-86.71-25.29-134.02,0-203.15,164.68-367.83,367.83-367.83,68.1,0,131.85,18.54,186.53,50.82-102.37,39.42-184.15,127.13-210.68,241.81l-30.57,132.17c-13.94,60.28-47.89,110.78-93.19,146.19-17.42,13.61-36.62,24.4-56.93,32.54-27.6,11.06-61.95,19.1-108.09,19.1l-57.01.09c81.1,117.23,216.6,194.52,369.94,194.52,248.2,0,449.4-201.2,449.4-449.4,0-46.7-7.13-91.73-20.34-134.07Z"/></svg>